<svg width="20" height="20" viewBox="0 0 20 20" fill="none" xmlns="http://www.w3.org/2000/svg">
<rect width="20" height="20" rx="2" fill="white"/>
<path d="M3.51634 8.11506V7.35227C3.51634 6.94034 3.6044 6.57812 3.78054 6.26562C3.95952 5.95312 4.21662 5.71023 4.55185 5.53693C4.88707 5.3608 5.28906 5.27273 5.75781 5.27273H6.89134V6.64062H5.7706C5.53764 6.64062 5.36151 6.69034 5.24219 6.78977C5.12287 6.88636 5.0419 7.01278 4.99929 7.16903C4.95952 7.32528 4.93963 7.49148 4.93963 7.66761V8.11506H3.51634ZM9.15838 14H6.20099V5.27273H9.21804C10.0845 5.27273 10.8288 5.44744 11.451 5.79688C12.076 6.14347 12.5561 6.64205 12.8913 7.29261C13.2266 7.94318 13.3942 8.72159 13.3942 9.62784C13.3942 10.5369 13.2251 11.3182 12.8871 11.9716C12.5518 12.625 12.0675 13.1264 11.4339 13.4759C10.8033 13.8253 10.0447 14 9.15838 14ZM7.78196 12.6321H9.08168C9.68963 12.6321 10.1967 12.5213 10.603 12.2997C11.0092 12.0753 11.3146 11.7415 11.5192 11.2983C11.7237 10.8523 11.826 10.2955 11.826 9.62784C11.826 8.96023 11.7237 8.40625 11.5192 7.96591C11.3146 7.52273 11.0121 7.19176 10.6115 6.97301C10.2138 6.75142 9.71946 6.64062 9.12855 6.64062H7.78196V12.6321ZM15.2234 14.0938C14.9648 14.0938 14.7433 14.0028 14.5586 13.821C14.3739 13.6392 14.283 13.4176 14.2859 13.1562C14.283 12.9006 14.3739 12.6818 14.5586 12.5C14.7433 12.3182 14.9648 12.2273 15.2234 12.2273C15.4734 12.2273 15.6907 12.3182 15.8754 12.5C16.0629 12.6818 16.158 12.9006 16.1609 13.1562C16.158 13.3295 16.1126 13.4872 16.0245 13.6293C15.9393 13.7713 15.8256 13.8849 15.6836 13.9702C15.5444 14.0526 15.391 14.0938 15.2234 14.0938Z" fill="black"/>
</svg>
